<svg width="16" height="16" viewBox="0 0 16 16" fill="none" xmlns="http://www.w3.org/2000/svg">
<path d="M6.95071 9.51071L11.4 5.06142L12.3786 6.04L6.88 11.5386L3.62142 8.28L4.6 7.30142L6.80929 9.51071L6.88 9.58142L6.95071 9.51071ZM8 15.9C6.90635 15.9 5.87989 15.6925 4.91962 15.2782C3.95741 14.863 3.12141 14.3 2.41071 13.5893C1.70001 12.8786 1.13702 12.0426 0.721817 11.0804C0.307452 10.1201 0.1 9.09365 0.1 8C0.1 6.90635 0.307452 5.87989 0.721817 4.91962C1.13702 3.95741 1.70001 3.12141 2.41071 2.41071C3.12141 1.70001 3.95741 1.13702 4.91962 0.721817C5.87989 0.307452 6.90635 0.1 8 0.1C9.09365 0.1 10.1201 0.307452 11.0804 0.721817C12.0426 1.13702 12.8786 1.70001 13.5893 2.41071C14.3 3.12141 14.863 3.95741 15.2782 4.91962C15.6925 5.87989 15.9 6.90635 15.9 8C15.9 9.09365 15.6925 10.1201 15.2782 11.0804C14.863 12.0426 14.3 12.8786 13.5893 13.5893C12.8786 14.3 12.0426 14.863 11.0804 15.2782C10.1201 15.6925 9.09365 15.9 8 15.9ZM8 14.5C9.81263 14.5 11.3516 13.8699 12.6107 12.6107C13.8699 11.3516 14.5 9.81263 14.5 8C14.5 6.18737 13.8699 4.64844 12.6107 3.38929C11.3516 2.13014 9.81263 1.5 8 1.5C6.18737 1.5 4.64844 2.13014 3.38929 3.38929C2.13014 4.64844 1.5 6.18737 1.5 8C1.5 9.81263 2.13014 11.3516 3.38929 12.6107C4.64844 13.8699 6.18737 14.5 8 14.5Z" fill="#009906" stroke="white" stroke-width="0.2"/>
</svg>
