<svg width="16" height="17" viewBox="0 0 16 17" fill="none" xmlns="http://www.w3.org/2000/svg">
<path d="M8.49929 12.1993C8.36564 12.3329 8.20148 12.4 8 12.4C7.79852 12.4 7.63437 12.3329 7.50071 12.1993C7.36706 12.0656 7.3 11.9015 7.3 11.7C7.3 11.4985 7.36706 11.3344 7.50071 11.2007C7.63437 11.0671 7.79852 11 8 11C8.20148 11 8.36564 11.0671 8.49929 11.2007C8.63294 11.3344 8.7 11.4985 8.7 11.7C8.7 11.9015 8.63294 12.0656 8.49929 12.1993ZM8.7 9.2H7.3V4.6H8.7V9.2ZM8 16.4C6.90635 16.4 5.87989 16.1925 4.91962 15.7782C3.95741 15.363 3.12141 14.8 2.41071 14.0893C1.70001 13.3786 1.13702 12.5426 0.721817 11.5804C0.307452 10.6201 0.1 9.59365 0.1 8.5C0.1 7.40635 0.307452 6.37989 0.721817 5.41962C1.13702 4.45741 1.70001 3.62141 2.41071 2.91071C3.12141 2.20001 3.95741 1.63702 4.91962 1.22182C5.87989 0.807452 6.90635 0.6 8 0.6C9.09365 0.6 10.1201 0.807452 11.0804 1.22182C12.0426 1.63702 12.8786 2.20001 13.5893 2.91071C14.3 3.62141 14.863 4.45741 15.2782 5.41962C15.6925 6.37989 15.9 7.40635 15.9 8.5C15.9 9.59365 15.6925 10.6201 15.2782 11.5804C14.863 12.5426 14.3 13.3786 13.5893 14.0893C12.8786 14.8 12.0426 15.363 11.0804 15.7782C10.1201 16.1925 9.09365 16.4 8 16.4ZM8 15C9.81263 15 11.3516 14.3699 12.6107 13.1107C13.8699 11.8516 14.5 10.3126 14.5 8.5C14.5 6.68737 13.8699 5.14844 12.6107 3.88929C11.3516 2.63014 9.81263 2 8 2C6.18737 2 4.64844 2.63014 3.38929 3.88929C2.13014 5.14844 1.5 6.68737 1.5 8.5C1.5 10.3126 2.13014 11.8516 3.38929 13.1107C4.64844 14.3699 6.18737 15 8 15Z" fill="#0076F5" stroke="#F2F8FE" stroke-width="0.2"/>
</svg>
